<svg width="22" height="22" viewBox="0 0 22 22" fill="none" xmlns="http://www.w3.org/2000/svg">
<path fill-rule="evenodd" clip-rule="evenodd" d="M 239.039 136.194 L 230.813 136.194 C 226.936 136.194 224.315 131.902 224.315 127.53 C 224.315 123.157 231.328 116.313 231.568 116.014 L 231.57 116.006 C 231.675 116.243 232.556 117.543 235.035 120.935 C 237.503 117.939 237.508 117.899 237.508 117.899 C 237.466 117.896 243.612 122.713 244.285 128.08 C 244.958 133.447 241.327 135.659 239.039 136.194 Z" stroke-width="1.5" stroke-linecap="round" stroke-linejoin="round" style="stroke: rgb(200, 200, 200); fill: rgba(0, 0, 0, 0);"></path>
<path fill-rule="evenodd" clip-rule="evenodd" d="M14.5 21H8.667C5.919 21 4 19.1742 4 16.5582C4 13.9422 7.974 9.72923 8.144 9.55015L8.667 9L9.189 9.55015C9.311 9.67754 11.372 11.8671 12.54 14.0622C13.29 12.9942 14.045 12.1634 14.108 12.0942L14.5 11.6668L14.892 12.0942C15.019 12.2335 18 15.5095 18 17.5449C18 19.5794 16.561 21 14.5 21Z" stroke="#C8C8C8" stroke-width="1.5" stroke-linecap="round" stroke-linejoin="round"/>
<path fill-rule="evenodd" clip-rule="evenodd" d="M8.27273 1C8.27273 1 1 7.76546 1 12.6709C1 17.5745 3.99091 21 8.27273 21H14.1818C18.1964 21 21 17.8864 21 13.4282C21 8.96909 14.1818 2.81818 14.1818 2.81818" stroke="#C8C8C8" stroke-width="1.5" stroke-linecap="round" stroke-linejoin="round"/>
</svg>
